<?xml version="1.0" encoding="utf-8"?>
<!-- Generator: Adobe Illustrator 16.0.0, SVG Export Plug-In . SVG Version: 6.00 Build 0)  -->
<!DOCTYPE svg PUBLIC "-//W3C//DTD SVG 1.1//EN" "http://www.w3.org/Graphics/SVG/1.1/DTD/svg11.dtd">
<svg version="1.1" xmlns="http://www.w3.org/2000/svg" xmlns:xlink="http://www.w3.org/1999/xlink" x="0px" y="0px"
	 width="195.333px" height="197.333px" viewBox="0 0 195.333 197.333" enable-background="new 0 0 195.333 197.333"
	 xml:space="preserve">
<g id="Layer_1">
	<g>
		<g>
			<path d="M122.194,178.324c-4.166,0-10.831-2.664-13.664-5.498c-4.66-4.662-6.495-9.327-7.827-14.492
				c-13.161,8.663-27.822,19.99-38.818,19.99c-21.487,0-37.146-18.157-37.146-38.979c0-14.827,8.329-25.989,26.321-31.487
				c19.157-6.496,42.313-15.493,49.145-20.489v-4.498c0-23.323-11.829-36.318-27.822-36.318c-6.83,0-12.163,2.833-15.159,6.498
				c-3.999,4.665-6.498,10.828-9.661,20.491c-0.833,4.665-4.335,6.83-9,6.83c-4.83,0-12.991-5.997-12.991-13.327
				c0-4.665,4.665-8.329,10.494-12.662c7.83-5.997,27.985-18.324,46.478-21.988c8.997,0,18.823,2.831,25.323,8.661
				c10.497,8.997,13.994,21.659,13.994,37.65v59.805c0,14.161,5.164,19.157,11.16,19.157c3.667,0,8.331-2.166,11.329-3.665
				l3.497,8.83L122.194,178.324z M100.204,98.529c-7.164,3.5-24.156,10.831-31.32,13.994c-12.996,5.498-19.99,11.661-19.99,23.489
				c0,15.827,12.991,23.822,23.487,23.822c8.663,0,21.656-7.162,27.822-12.659V98.529z"/>
		</g>
		<g>
			<path d="M138.48,19.009h7.342l16.239,20.595V19.009h8.534v35.817h-7.343L147.013,34.23v20.595h-8.533V19.009z"/>
		</g>
	</g>
</g>
<g id="Layer_2">
</g>
<g id="Layer_3">
</g>
<g id="Layer_4">
</g>
</svg>
