<?xml version="1.0" encoding="utf-8"?>
<!-- Generator: Adobe Illustrator 19.2.0, SVG Export Plug-In . SVG Version: 6.00 Build 0)  -->
<svg version="1.1" id="Layer_1" xmlns="http://www.w3.org/2000/svg" xmlns:xlink="http://www.w3.org/1999/xlink" x="0px" y="0px"
	 viewBox="0 0 195.3 197.3" style="enable-background:new 0 0 195.3 197.3;" xml:space="preserve">
<style type="text/css">
	.st0{fill:#1A1A1A;}
	.st1{fill:none;stroke:#F2F2F2;stroke-width:4;stroke-miterlimit:10;}
	.st2{fill:#F2F2F2;}
	.st3{fill:none;stroke:#F2F2F2;stroke-width:2;stroke-linecap:round;stroke-miterlimit:10;stroke-dasharray:0,9.9426;}
	.st4{fill:none;stroke:#333333;stroke-width:2;stroke-linecap:round;stroke-miterlimit:10;stroke-dasharray:0,9.9426;}
	.st5{fill:#333333;}
</style>
<circle class="st0" cx="504.3" cy="98.7" r="84.7"/>
<circle class="st1" cx="505.3" cy="98.7" r="76"/>
<g id="Layer_1_1_">
	<g>
		<g>
			<path d="M871.9,178.3c-4.2,0-10.8-2.7-13.7-5.5c-4.7-4.7-6.5-9.3-7.8-14.5c-13.2,8.7-27.8,20-38.8,20c-21.5,0-37.1-18.2-37.1-39
				c0-14.8,8.3-26,26.3-31.5c19.2-6.5,42.3-15.5,49.1-20.5v-4.5c0-23.3-11.8-36.3-27.8-36.3c-6.8,0-12.2,2.8-15.2,6.5
				c-4,4.7-6.5,10.8-9.7,20.5c-0.8,4.7-4.3,6.8-9,6.8c-4.8,0-13-6-13-13.3c0-4.7,4.7-8.3,10.5-12.7c7.8-6,28-18.3,46.5-22
				c9,0,18.8,2.8,25.3,8.7c10.5,9,14,21.7,14,37.6v59.8c0,14.2,5.2,19.2,11.2,19.2c3.7,0,8.3-2.2,11.3-3.7l3.5,8.8L871.9,178.3z
				 M849.9,98.5c-7.2,3.5-24.2,10.8-31.3,14c-13,5.5-20,11.7-20,23.5c0,15.8,13,23.8,23.5,23.8c8.7,0,21.7-7.2,27.8-12.7L849.9,98.5
				L849.9,98.5z"/>
		</g>
		<g>
			<path d="M888.1,19h7.3l16.2,20.6V19h8.5v35.8h-7.3l-16.2-20.6v20.6h-8.5V19z"/>
		</g>
	</g>
</g>
<g id="Layer_2">
</g>
<g id="Layer_3">
</g>
<g id="Layer_4">
</g>
<g id="Layer_1_2_">
	<g>
		<g>
			<path class="st2" d="M519,135.6c-2,0-5.2-1.3-6.5-2.6c-2.2-2.2-3.1-4.4-3.7-6.9c-6.3,4.1-13.3,9.5-18.5,9.5
				c-10.2,0-17.7-8.6-17.7-18.6c0-7.1,4-12.4,12.5-15c9.1-3.1,20.2-7.4,23.4-9.8v-2.1c0-11.1-5.6-17.3-13.3-17.3
				c-3.3,0-5.8,1.3-7.2,3.1c-1.9,2.2-3.1,5.2-4.6,9.8c-0.4,2.2-2.1,3.3-4.3,3.3c-2.3,0-6.2-2.9-6.2-6.3c0-2.2,2.2-4,5-6
				c3.7-2.9,13.3-8.7,22.1-10.5c4.3,0,9,1.3,12.1,4.1c5,4.3,6.7,10.3,6.7,17.9v28.5c0,6.7,2.5,9.1,5.3,9.1c1.7,0,4-1,5.4-1.7
				l1.7,4.2L519,135.6z M508.5,97.6c-3.4,1.7-11.5,5.2-14.9,6.7c-6.2,2.6-9.5,5.6-9.5,11.2c0,7.5,6.2,11.3,11.2,11.3
				c4.1,0,10.3-3.4,13.3-6L508.5,97.6L508.5,97.6z"/>
		</g>
		<g>
			<path class="st2" d="M526.8,59.7h3.5l7.7,9.8v-9.8h4.1v17.1h-3.5l-7.7-9.8v9.8h-4.1V59.7z"/>
		</g>
	</g>
</g>
<circle class="st0" cx="302.7" cy="98.7" r="84.7"/>
<g>
	<circle class="st3" cx="303.7" cy="98.7" r="76"/>
</g>
<g>
	<circle class="st4" cx="97.7" cy="98.7" r="76"/>
</g>
<g id="Layer_1_3_">
	<g>
		<g>
			<path class="st2" d="M317.3,135.6c-2,0-5.2-1.3-6.5-2.6c-2.2-2.2-3.1-4.4-3.7-6.9c-6.3,4.1-13.3,9.5-18.5,9.5
				c-10.2,0-17.7-8.6-17.7-18.6c0-7.1,4-12.4,12.5-15c9.1-3.1,20.2-7.4,23.4-9.8v-2.1c0-11.1-5.6-17.3-13.3-17.3
				c-3.3,0-5.8,1.3-7.2,3.1c-1.9,2.2-3.1,5.2-4.6,9.8c-0.4,2.2-2.1,3.3-4.3,3.3c-2.3,0-6.2-2.9-6.2-6.3c0-2.2,2.2-4,5-6
				c3.7-2.9,13.3-8.7,22.1-10.5c4.3,0,9,1.3,12.1,4.1c5,4.3,6.7,10.3,6.7,17.9v28.5c0,6.7,2.5,9.1,5.3,9.1c1.7,0,4-1,5.4-1.7
				l1.7,4.2L317.3,135.6z M306.9,97.6c-3.4,1.7-11.5,5.2-14.9,6.7c-6.2,2.6-9.5,5.6-9.5,11.2c0,7.5,6.2,11.3,11.2,11.3
				c4.1,0,10.3-3.4,13.3-6L306.9,97.6L306.9,97.6z"/>
		</g>
		<g>
			<path class="st2" d="M325.1,59.7h3.5l7.7,9.8v-9.8h4.1v17.1h-3.5l-7.7-9.8v9.8h-4.1V59.7z"/>
		</g>
	</g>
</g>
<g id="Layer_1_4_">
	<g>
		<g>
			<path class="st5" d="M111.3,135.6c-2,0-5.2-1.3-6.5-2.6c-2.2-2.2-3.1-4.4-3.7-6.9c-6.3,4.1-13.3,9.5-18.5,9.5
				c-10.2,0-17.7-8.6-17.7-18.6c0-7.1,4-12.4,12.5-15c9.1-3.1,20.2-7.4,23.4-9.8v-2.1c0-11.1-5.6-17.3-13.3-17.3
				c-3.3,0-5.8,1.3-7.2,3.1c-1.9,2.2-3.1,5.2-4.6,9.8c-0.4,2.2-2.1,3.3-4.3,3.3c-2.3,0-6.2-2.9-6.2-6.3c0-2.2,2.2-4,5-6
				c3.7-2.9,13.3-8.7,22.1-10.5c4.3,0,9,1.3,12.1,4.1c5,4.3,6.7,10.3,6.7,17.9v28.5c0,6.7,2.5,9.1,5.3,9.1c1.7,0,4-1,5.4-1.7
				l1.7,4.2L111.3,135.6z M100.9,97.6c-3.4,1.7-11.5,5.2-14.9,6.7c-6.2,2.6-9.5,5.6-9.5,11.2c0,7.5,6.2,11.3,11.2,11.3
				c4.1,0,10.3-3.4,13.3-6L100.9,97.6L100.9,97.6z"/>
		</g>
		<g>
			<path class="st5" d="M119.1,59.7h3.5l7.7,9.8v-9.8h4.1v17.1h-3.5l-7.7-9.8v9.8h-4.1V59.7z"/>
		</g>
	</g>
</g>
<g id="Layer_4_1_">
</g>
</svg>
