<?xml version="1.0" encoding="utf-8"?>
<!-- Generator: Adobe Illustrator 19.2.1, SVG Export Plug-In . SVG Version: 6.00 Build 0)  -->
<svg version="1.1" id="Layer_1" xmlns="http://www.w3.org/2000/svg" xmlns:xlink="http://www.w3.org/1999/xlink" x="0px" y="0px"
	 viewBox="0 0 195.3 197.3" style="enable-background:new 0 0 195.3 197.3;" xml:space="preserve">
<g id="Layer_1_1_">
	<g>
		<g>
			<path d="M122.2,178.3c-4.2,0-10.8-2.7-13.7-5.5c-4.7-4.7-6.5-9.3-7.8-14.5c-13.2,8.7-27.8,20-38.8,20c-21.5,0-37.1-18.2-37.1-39
				c0-14.8,8.3-26,26.3-31.5c19.2-6.5,42.3-15.5,49.1-20.5v-4.5c0-23.3-11.8-36.3-27.8-36.3c-6.8,0-12.2,2.8-15.2,6.5
				c-4,4.7-6.5,10.8-9.7,20.5c-0.8,4.7-4.3,6.8-9,6.8c-4.8,0-13-6-13-13.3c0-4.7,4.7-8.3,10.5-12.7c7.8-6,28-18.3,46.5-22
				c9,0,18.8,2.8,25.3,8.7c10.5,9,14,21.7,14,37.6v59.8c0,14.2,5.2,19.2,11.2,19.2c3.7,0,8.3-2.2,11.3-3.7l3.5,8.8L122.2,178.3z
				 M100.2,98.5c-7.2,3.5-24.2,10.8-31.3,14c-13,5.5-20,11.7-20,23.5c0,15.8,13,23.8,23.5,23.8c8.7,0,21.7-7.2,27.8-12.7L100.2,98.5
				L100.2,98.5z"/>
		</g>
		<g>
			<path d="M138.5,19h7.3l16.2,20.6V19h8.5v35.8h-7.3L147,34.2v20.6h-8.5V19z"/>
		</g>
	</g>
</g>
</svg>
