<?xml version="1.0" encoding="utf-8"?>
<!-- Generator: Adobe Illustrator 21.0.0, SVG Export Plug-In . SVG Version: 6.00 Build 0)  -->
<svg version="1.1" id="Icons" xmlns="http://www.w3.org/2000/svg" xmlns:xlink="http://www.w3.org/1999/xlink" x="0px" y="0px"
	 viewBox="0 0 115 115" style="enable-background:new 0 0 115 115;" xml:space="preserve">
<style type="text/css">
	.st0{fill:#E5E5E5;}
</style>
<title>audio-mute</title>
<path class="st0" d="M57.9,13c3.3,0,5.9,2.6,5.9,5.9v73.4c0,3.3-2.7,5.9-5.9,5.9c-1,0-2.1-0.3-2.9-0.9l-25-29
	c-1.1-1.3-2.8-2.1-4.5-2.1h-8c-3.2,0-5.9-2.6-5.9-5.9l0,0v-9.6c0-3.2,2.6-5.9,5.9-5.9h8.1c1.7,0,3.4-0.8,4.6-2.1l25-29
	C55.9,13.3,56.9,13,57.9,13 M57.9,7C55.4,7,53,7.8,51,9.3L25.5,38.9h-8.1c-6.6,0-11.9,5.3-11.9,11.9v9.6c0,6.6,5.3,11.9,11.9,11.9
	h8.1L51,101.9c2,1.5,4.4,2.3,6.9,2.3c6.6,0,11.9-5.3,11.9-11.9c0,0,0,0,0,0V18.9C69.8,12.3,64.5,7,57.9,7C57.9,7,57.9,7,57.9,7z"/>
</svg>
