<?xml version="1.0" encoding="utf-8"?>
<!-- Generator: Adobe Illustrator 21.0.0, SVG Export Plug-In . SVG Version: 6.00 Build 0)  -->
<svg version="1.1" id="Icons" xmlns="http://www.w3.org/2000/svg" xmlns:xlink="http://www.w3.org/1999/xlink" x="0px" y="0px"
	 viewBox="0 0 115 115" style="enable-background:new 0 0 115 115;" xml:space="preserve">
<style type="text/css">
	.st0{fill:#E5E5E5;}
</style>
<title>audio-on</title>
<g>
	<path class="st0" d="M58.2,13c3.3,0,5.9,2.6,5.9,5.9v18.8c0,2.4,1.4,4.6,3.6,5.5c8,3.4,10.7,6.6,10.7,12.5c0,5.5-2.1,7.8-10.7,11.5
		c-2.2,0.9-3.6,3.1-3.6,5.5v19.6c0,3.3-2.7,5.9-5.9,5.9c-1,0-2-0.3-2.9-0.8l-25-29c-1.1-1.3-2.8-2.1-4.5-2.1h-8
		c-3.2,0-5.9-2.6-5.9-5.9v-9.6c0-3.2,2.6-5.9,5.9-5.9h8.1c1.7,0,3.4-0.8,4.6-2.1l25-29C56.2,13.3,57.2,13,58.2,13 M58.2,7
		c-2.5,0-4.9,0.8-6.9,2.3L25.8,38.9h-8.1c-6.6,0-11.9,5.3-11.9,11.9c0,0,0,0,0,0v9.6c0,6.6,5.3,11.9,11.9,11.9c0,0,0,0,0,0h8.1
		l25.5,29.7c2,1.5,4.4,2.3,6.9,2.3c6.6,0,11.9-5.3,11.9-11.9c0,0,0,0,0,0V72.7c8.4-3.6,14.3-7.2,14.3-17s-5.9-14.3-14.3-18V18.9
		C70.1,12.3,64.8,7,58.2,7C58.2,7,58.2,7,58.2,7z"/>
</g>
<g>
	<path class="st0" d="M76.2,81.3c-1.7,0-3-1.3-3-3s1.3-3,3-3c9.2,0,16.7-9.1,16.7-20.3s-7.5-20.3-16.7-20.3c-1.7,0-3-1.3-3-3
		s1.3-3,3-3c12.5,0,22.7,11.8,22.7,26.3C98.9,69.5,88.7,81.3,76.2,81.3z"/>
</g>
<g>
	<path class="st0" d="M75.6,96.3c-1.7,0-3-1.3-3-3s1.3-3,3-3c16.9,0,30.7-15.8,30.7-35.3c0-19.5-13.8-35.3-30.7-35.3
		c-1.7,0-3-1.3-3-3s1.3-3,3-3c20.2,0,36.7,18.5,36.7,41.3C112.3,77.8,95.9,96.3,75.6,96.3z"/>
</g>
</svg>
