<?xml version="1.0" encoding="utf-8"?>
<!-- Generator: Adobe Illustrator 19.2.1, SVG Export Plug-In . SVG Version: 6.00 Build 0)  -->
<svg version="1.1" id="Layer_1" xmlns="http://www.w3.org/2000/svg" xmlns:xlink="http://www.w3.org/1999/xlink" x="0px" y="0px"
	 viewBox="0 0 833 418" style="enable-background:new 0 0 833 418;" xml:space="preserve">
<style type="text/css">
	.st0{fill:#232323;}
</style>
<g>
	<path class="st0" d="M110.8,116.1H54.5l-9,24c-9.5,25.3-5.3,35.3,18,38.5v3.5H4v-3.5c16.5-4.3,26.5-16,36-40.8L91.1,4.2h22
		l57.1,155.2c4.8,12.8,8.5,16.3,27,19.3v3.5h-95.4v-3.5c24-1.3,29-6.3,24.5-18.8L110.8,116.1z M109.1,111.1L83.8,40.3h-1.3
		l-26.3,70.8H109.1z"/>
	<path class="st0" d="M201.4,179.1c14-0.3,16.8-2.8,16.8-8.8V21c0-7.5-2.5-12-17.8-12.3v-3l56.3-3v167.7c0,6,2.5,8.5,16.8,8.8v3
		h-72.1L201.4,179.1L201.4,179.1z"/>
	<path class="st0" d="M279,125.8c0-39.3,27.3-61.8,61.3-61.8c35.8,0,55.1,23.3,53.3,57.8h-74.1v3.5v0.5c0,31.5,12.8,47.6,36.8,47.6
		c14.8,0,24.8-7.3,34-20l2.8,1.8c-11.8,18.3-28,29-52.6,29C304,184.2,279,163.9,279,125.8z M319.6,116.8h35.5
		c3.3-29-2.5-47.8-16.3-47.8C325.8,69,320.6,87.3,319.6,116.8z"/>
	<path class="st0" d="M491.8,90.8c11.8-14.5,8-18.8-9-21.8v-3h48.3v3c-13.3,2.5-20.3,8-30.5,20l-21.3,25.3l33.3,47.6
		c7.5,10.5,11,14.5,23.3,17.3v3H465v-3c14.5-1.3,14.8-5,9.8-13l-21.3-32.5L433,159c-11.5,14-6.3,17.8,11,20.3v3h-49.6v-3
		c13.3-2.5,20-6.8,29.3-17.8l26.3-31.3l-31.8-44.8c-8.5-12-11-14.8-22.8-16.3v-3h70.8v3c-11.8,1.5-15.3,4.5-10.3,12.3l19.8,29.5
		L491.8,90.8z"/>
	<path class="st0" d="M41.1,274.9h-0.3V372c0,25.5,9.3,37,34.8,39.5v3.5h-72v-3.5c23.5-2.8,31-14,31-39.5v-98.6
		c0-15.5-9.5-28-31-29.5v-3.3h63.6L161.3,361h0.3v-77.6c0-25-10-36.8-35.3-39.5v-3.3h72.6v3.3c-23.5,3.3-31,14.5-31,39.5v133.9H153
		L41.1,274.9z"/>
	<path class="st0" d="M194.2,357.2c0-37.3,24-60.3,62.3-60.3c39.3,0,62.1,22,62.1,59.3c0,37.5-24,60.8-62.1,60.8
		C216.7,417,194.2,394.8,194.2,357.2z M277.8,356.7c0-33.8-5.5-54.8-22.5-54.8c-16.8,0-20.3,21-20.3,54.8s5.5,55.3,22.5,55.3
		C274,412,277.8,390.5,277.8,356.7z"/>
	<path class="st0" d="M326.6,412c14.3-0.3,17-2.8,17-8.8v-86.6c0-7.5-2.8-12-17-12.3v-3l55.1-3v23.5c7.8-15.3,21.3-24.3,35-24.3
		c15.5,0,24,9.5,24,22.5s-8.3,22-19.8,22c-13.5,0-21.3-9.5-21.3-19.5c0-3.8,1-8,2-11.3c-6,0.5-14.5,7-19.5,15.5V403
		c0,6,3.8,8,23,8.8v3h-78.6L326.6,412L326.6,412z"/>
	<path class="st0" d="M463.5,380.8v-71.3h-21.8v-4.8l22.3-4.5v-31.8l38-10.5v42.8h35.3v8.3H502v74c0,14,3.5,20.8,14.8,20.8
		c8,0,13.5-4.8,18.3-16l3.3,1.5c-6.8,18.8-16.8,27.8-37,27.8C480.8,417,463.5,408,463.5,380.8z"/>
	<path class="st0" d="M545.6,357.2c0-37.3,24-60.3,62.3-60.3c39.3,0,62.1,22,62.1,59.3c0,37.5-24,60.8-62.1,60.8
		C568.1,417,545.6,394.8,545.6,357.2z M629.2,356.7c0-33.8-5.5-54.8-22.5-54.8c-16.8,0-20.3,21-20.3,54.8s5.5,55.3,22.5,55.3
		C625.4,412,629.2,390.5,629.2,356.7z"/>
	<path class="st0" d="M681.5,412c14.3-0.3,17-2.8,17-8.8v-86.6c0-7.5-2.8-12-17-12.3v-3l55.1-3v23.8c10.5-14.8,27.3-24.5,43.3-24.5
		c22.3,0,31.8,13.3,31.8,37.3v68.3c0,6,2.5,8.5,16.8,8.8v3h-68.1v-3c8.8-0.3,12.8-2.8,12.8-8.8v-68.1c0-13-4.8-20.8-16-20.8
		c-7.8,0-13.8,5-20,12.8v76.1c0,6,3.8,8.5,12.3,8.8v3h-67.8v-3H681.5z"/>
</g>
</svg>
